<?xml version="1.0" encoding="UTF-8"?><svg id="a" xmlns="http://www.w3.org/2000/svg" viewBox="0 0 1000 1000"><defs><style>.b{stroke:#000;stroke-miterlimit:10;}</style></defs><path class="b" d="M338.53,271.04v3.36l161.65,161.2,161-162.26-.62-3.15-36.3-36.17c-3.11-4.77-3.75-10.23.61-14.39,19.09-15.79,34.8-39.64,53.69-54.95,4.1-3.32,11.81-8.24,17.21-7.27,4.39.79,29.58,28.24,35.23,33.56,3.3,3.1,8.5,4.93,9.42,9.95h2.45c1.75-4.94,9.3-13.13,14.95-10.6,3.04,1.36,32.91,30.48,33.57,32.73,2.59,8.83-11.37,13.66-9.23,17.82.81,1.58,9.8,9.93,11.92,11.89,31.91,29.46,72.06,51.11,114.91,59.31-23.11,77.83-87.79,148.21-168.59,166.07,7.15-49.95.98-104.13-24.77-148.19-1.19-2.04-4.9-9.57-7.01-9.1l-161.7,161.84c19.22,21.11,40.02,41.49,60.44,61.68,73.64,72.77,148.45,144.55,221.01,218.56,8.74,13.27-4.56,26.14-13.02,35.56-6.22,6.92-22.33,23.78-29.93,27.52-8.31,4.1-14.41,3.87-21.35-2.53-11.06-10.21-24.26-37.4-33.9-51.01-6.65-9.39-14.04-18.44-21.6-27.1-37.63-43.05-80.65-86.68-120.49-128.02-29-30.09-58.63-59.67-88.24-89.16-3.01-.53-34.38,34.46-39.13,39.28-56.06,56.95-114.44,115.09-166.76,175.4-20.14,23.22-30.67,43.09-47.55,67.34-8.85,12.71-15.44,24.34-32.14,14.88-7.86-4.45-39.75-37.13-42.34-45.07-2.61-8.01-1.04-14.89,4.65-20.91l277.85-275.34-163.02-162.92c-1.93-.43-9.04,12.11-10.31,14.54-22.58,43.11-26.63,95.13-20.21,142.75-63.56-14.24-119.67-63.69-150.06-120.29-2.89-5.39-20.91-43.44-18.52-45.79,49.69-7.87,93.28-37.21,128.61-71.81-19.73-14.87-8.54-20.94,5-33.73,3.64-3.44,15.89-15.02,19.69-15.36,6.99-.63,11.36,11.23,15.29,9.21l38.67-40.08c8.17-6.92,17.13,1.24,23.79,6.28l54.67,56.46c.83,4.26.65,7.87-1.67,11.55-4.84,7.72-25.8,26.03-33.62,33.84-1.23,1.22-2.57,2.02-4.17,2.63Z"/></svg>